<?xml version="1.0" encoding="UTF-8"?>
<svg xmlns="http://www.w3.org/2000/svg" xmlns:xlink="http://www.w3.org/1999/xlink" width="15px" height="16px" viewBox="0 0 15 16" version="1.1">
<g id="surface1">
<path style=" stroke:none;fill-rule:nonzero;fill:rgb(0%,0%,0%);fill-opacity:1;" d="M 3.355469 14 L 0.246094 14 L 0.246094 4.652344 L 3.355469 4.652344 Z M 1.800781 3.378906 C 0.808594 3.378906 0 2.609375 0 1.679688 C 0 0.753906 0.808594 0 1.800781 0 C 2.792969 0 3.605469 0.753906 3.605469 1.679688 C 3.605469 2.609375 2.792969 3.378906 1.800781 3.378906 Z M 14.996094 14 L 11.894531 14 L 11.894531 9.453125 C 11.894531 8.363281 11.871094 6.976562 10.277344 6.976562 C 8.660156 6.976562 8.414062 8.152344 8.414062 9.371094 L 8.414062 14 L 5.300781 14 L 5.300781 4.652344 L 8.292969 4.652344 L 8.292969 5.925781 L 8.332031 5.925781 C 8.746094 5.195312 9.761719 4.421875 11.273438 4.421875 C 14.417969 4.421875 15 6.355469 15 8.863281 L 15 14 Z M 14.996094 14 "/>
</g>
</svg>
